<?xml version="1.0" encoding="UTF-8" standalone="no"?>
<!-- Created with Inkscape (http://www.inkscape.org/) -->

<svg
   xmlns:dc="http://purl.org/dc/elements/1.1/"
   xmlns:cc="http://creativecommons.org/ns#"
   xmlns:rdf="http://www.w3.org/1999/02/22-rdf-syntax-ns#"
   xmlns:svg="http://www.w3.org/2000/svg"
   xmlns="http://www.w3.org/2000/svg"
   xmlns:sodipodi="http://sodipodi.sourceforge.net/DTD/sodipodi-0.dtd"
   xmlns:inkscape="http://www.inkscape.org/namespaces/inkscape"
   width="210mm"
   height="297mm"
   viewBox="0 0 744.09448819 1052.3622047"
   id="svg2"
   version="1.1"
   inkscape:version="0.91 r13725"
   sodipodi:docname="mas.svg">
  <defs
     id="defs4" />
  <sodipodi:namedview
     id="base"
     pagecolor="#ffffff"
     bordercolor="#666666"
     borderopacity="1.0"
     inkscape:pageopacity="0.0"
     inkscape:pageshadow="2"
     inkscape:zoom="0.35"
     inkscape:cx="-299.28571"
     inkscape:cy="517.14286"
     inkscape:document-units="px"
     inkscape:current-layer="layer1"
     showgrid="false"
     inkscape:window-width="1920"
     inkscape:window-height="1018"
     inkscape:window-x="-8"
     inkscape:window-y="-8"
     inkscape:window-maximized="1" />
  <metadata
     id="metadata7">
    <rdf:RDF>
      <cc:Work
         rdf:about="">
        <dc:format>image/svg+xml</dc:format>
        <dc:type
           rdf:resource="http://purl.org/dc/dcmitype/StillImage" />
        <dc:title />
      </cc:Work>
    </rdf:RDF>
  </metadata>
  <g
     inkscape:label="Capa 1"
     inkscape:groupmode="layer"
     id="layer1">
    <ellipse
       style="fill:#ffffff;fill-opacity:1;fill-rule:nonzero;stroke:none;stroke-width:5.5;stroke-miterlimit:4;stroke-dasharray:none;stroke-opacity:1"
       id="path8074"
       cx="371.42856"
       cy="366.64792"
       rx="334.28571"
       ry="305.71429" />
    <path
       fill="param(fill) #FFF"
       stroke="param(outline) #000"
       stroke-width="param(outline-width) 1"
       d="M 371.42773 40.933594 C 183.65092 40.933593 31.427736 193.15678 31.427734 380.93359 C 31.427734 568.71041 192.22374 826.64788 365.71484 940.93359 C 519.20594 852.36216 711.42773 568.7104 711.42773 380.93359 C 711.42773 193.15678 559.20454 40.933594 371.42773 40.933594 z M 373.42773 78.933594 A 304.28571 304.28571 0 0 1 677.71484 383.21875 A 304.28571 304.28571 0 0 1 373.42773 687.50586 A 304.28571 304.28571 0 0 1 69.142578 383.21875 A 304.28571 304.28571 0 0 1 373.42773 78.933594 z "
       id="path8081" />
    <path
       style="fill:#000000;fill-opacity:1;fill-rule:nonzero;stroke:none;stroke-width:5.5;stroke-miterlimit:4;stroke-dasharray:none;stroke-opacity:1"
       d="M 317.81458,644.05163 C 219.8415,624.44042 141.06239,556.19372 110.08933,464.09833 89.88991,404.03731 92.57328,339.05477 117.66408,280.664 c 6.3008,-14.66316 20.47445,-41.28492 23.3743,-43.90305 0.66372,-0.59924 2.6901,-3.54096 4.50312,-6.53715 10.50068,-17.35381 45.07006,-51.0167 68.7713,-66.96804 29.00972,-19.52404 69.69646,-36.51527 104.45767,-43.62262 24.23116,-4.95435 83.35001,-4.93448 107.41846,0.0362 60.78672,12.55364 108.21569,39.08015 150.799,84.34026 25.27546,26.8643 38.99241,48.1334 53.11526,82.3589 27.09813,65.67006 24.22275,142.76657 -7.83197,209.99526 -12.39789,26.00224 -37.13762,59.47579 -57.05328,77.19467 -6.59231,5.86515 -12.4508,11.25508 -13.01889,11.97761 -2.60646,3.31514 -33.28652,23.90706 -44.4134,29.80952 -26.98333,14.31381 -56.63116,24.57923 -86.51522,29.95549 -25.98084,4.67406 -76.9381,4.0587 -103.45585,-1.24934 z m 79.75157,-63.11055 c 27.44785,-2.93672 61.7244,-13.83882 76.45368,-24.31711 3.01578,-2.14539 6.05686,-3.90072 6.75795,-3.90072 1.81205,0 18.47591,-11.54818 20.08903,-13.92183 1.1873,-1.74709 -12.15463,-13.38649 -90.17092,-78.6643 -14.78804,-12.37345 -56.33961,-46.89894 -70.82327,-58.84757 -1.45964,-1.20414 -3.78506,-3.16993 -5.16762,-4.36841 -6.94076,-6.01663 -46.4978,-39.07256 -86.16966,-72.0079 -24.42743,-20.27945 -46.21545,-38.60412 -48.41803,-40.7215 -5.39364,-5.18521 -9.11692,-4.84528 -11.53467,1.05308 -1.10533,2.69657 -2.89731,6.37372 -3.98218,8.17144 -1.08495,1.79772 -3.50587,7.19086 -5.37991,11.98477 -1.87404,4.79391 -4.2304,10.67735 -5.23632,13.0743 -8.43064,20.08926 -12.68938,69.07991 -8.10602,93.24843 4.59227,24.21568 12.02097,47.32841 18.70461,58.19558 1.10569,1.79771 3.11667,5.72 4.46891,8.7162 6.04306,13.38959 43.41061,56.65531 48.93187,56.65531 1.25884,0 2.28876,0.8412 2.28876,1.86931 0,4.75282 55.44257,35.05195 64.3021,35.14081 1.84951,0.0196 6.64929,1.48226 10.66621,3.25269 6.55135,2.88748 33.35032,6.59084 53.40512,7.38005 4.14019,0.16299 17.15436,-0.73375 28.92036,-1.99263 z m 165.7093,-122.46176 c 11.54819,-25.48916 14.5821,-41.54887 14.51079,-76.81153 -0.0465,-23.0106 -1.03186,-36.28785 -3.32873,-44.85477 -3.47502,-12.96106 -15.92713,-45.93384 -18.03453,-47.75486 -0.69349,-0.59924 -4.47882,-6.45186 -8.41184,-13.00582 C 507.81727,209.07352 416.33982,168.60109 338.395,183.31173 c -27.53102,5.19597 -35.66176,7.3454 -45.29289,11.97355 -5.07241,2.4375 -10.55411,4.43181 -12.18154,4.43181 -1.62749,0 -4.11624,1.47086 -5.53065,3.26858 -1.41436,1.79772 -3.56979,3.26858 -4.78979,3.26858 -1.22001,0 -5.73318,2.56945 -10.02915,5.70989 l -7.81095,5.70989 21.12726,17.60536 c 37.49819,31.24739 60.35142,50.48196 61.40909,51.68542 0.56808,0.64637 18.23016,15.3164 39.24906,32.60005 21.0189,17.28366 38.68098,31.99942 39.24906,32.70171 0.56807,0.70226 7.07515,6.08824 14.46017,11.96882 7.38503,5.88058 13.8921,11.28123 14.46018,12.00143 1.16305,1.47452 36.25443,30.81959 79.53098,66.5076 15.90619,13.11704 29.23022,24.59745 29.60893,25.51204 1.91529,4.6253 6.7838,0.4574 11.42069,-9.77714 z"
       id="path17071"
       inkscape:connector-curvature="0" />
  </g>
</svg>
